<svg width="120" height="120" viewBox="0 0 120 120" fill="none" xmlns="http://www.w3.org/2000/svg">
  <rect width="120" height="120" rx="24" fill="#dc3545"/>
  <path d="M67.972 34.508a.5.5 0 0 0-.16-.556l-.178-.129a5.009 5.009 0 0 0-2.076-.783c-1.343-.178-3.054.189-4.718 2.093H59.786a.5.5 0 0 0-.354.147l-1.286 1.287a.5.5 0 0 0 0 .706l10.142 10.148a.5.5 0 0 0 .708 0l1.286-1.29a.5.5 0 0 0 .146-.353v-1.765l16.387 16.873a.5.5 0 0 0 .706 0l1.568-1.574a.5.5 0 0 0 0-.706l-16.873-16.39c.681-.66 1.65-1.248 2.661-1.265z" fill="#fff"/>
</svg>
